<?xml version="1.0" encoding="UTF-8" standalone="no"?>
<!DOCTYPE svg PUBLIC "-//W3C//DTD SVG 1.1//EN" "http://www.w3.org/Graphics/SVG/1.1/DTD/svg11.dtd">
<svg width="100%" height="100%" viewBox="0 0 144 144" version="1.1" xmlns="http://www.w3.org/2000/svg" xmlns:xlink="http://www.w3.org/1999/xlink" xml:space="preserve" xmlns:serif="http://www.serif.com/" style="fill-rule:evenodd;clip-rule:evenodd;stroke-linejoin:round;stroke-miterlimit:2;">
    <g transform="matrix(1.0253,0,0,1.01933,-3.6438,-2.78323)">
        <rect x="3.554" y="2.73" width="140.446" height="141.27" style="fill:url(#_Linear1);"/>
    </g>
    <g transform="matrix(0.878155,0,0,0.878155,72,76)">
        <g transform="matrix(1,0,0,1,-64,-64)">
            <path d="M120.85,29.21C120.85,29.62 120.72,29.99 120.47,30.33C120.21,30.66 119.94,30.83 119.63,30.83C117.14,31.07 115.09,31.87 113.51,33.24C111.92,34.6 110.29,37.21 108.6,41.05L82.8,99.19C82.63,99.73 82.16,100 81.38,100C80.77,100 80.3,99.73 79.96,99.19L65.49,68.93L48.85,99.19C48.51,99.73 48.04,100 47.43,100C46.69,100 46.2,99.73 45.96,99.19L20.61,41.05C19.03,37.44 17.36,34.92 15.6,33.49C13.85,32.06 11.4,31.17 8.27,30.83C8,30.83 7.74,30.69 7.51,30.4C7.27,30.12 7.15,29.79 7.15,29.42C7.15,28.47 7.42,28 7.96,28C10.22,28 12.58,28.1 15.05,28.3C17.34,28.51 19.5,28.61 21.52,28.61C23.58,28.61 26.01,28.51 28.81,28.3C31.74,28.1 34.34,28 36.6,28C37.14,28 37.41,28.47 37.41,29.42C37.41,30.36 37.24,30.83 36.91,30.83C34.65,31 32.87,31.58 31.57,32.55C30.27,33.53 29.62,34.81 29.62,36.4C29.62,37.21 29.89,38.22 30.43,39.43L51.38,86.74L63.27,64.28L52.19,41.05C50.2,36.91 48.56,34.23 47.28,33.03C46,31.84 44.06,31.1 41.46,30.83C41.22,30.83 41,30.69 40.78,30.4C40.56,30.12 40.45,29.79 40.45,29.42C40.45,28.47 40.68,28 41.16,28C43.42,28 45.49,28.1 47.38,28.3C49.2,28.51 51.14,28.61 53.2,28.61C55.22,28.61 57.36,28.51 59.62,28.3C61.95,28.1 64.24,28 66.5,28C67.04,28 67.31,28.47 67.31,29.42C67.31,30.36 67.15,30.83 66.81,30.83C62.29,31.14 60.03,32.42 60.03,34.68C60.03,35.69 60.55,37.26 61.6,39.38L68.93,54.26L76.22,40.65C77.23,38.73 77.74,37.11 77.74,35.79C77.74,32.69 75.48,31.04 70.96,30.83C70.55,30.83 70.35,30.36 70.35,29.42C70.35,29.08 70.45,28.76 70.65,28.46C70.86,28.15 71.06,28 71.26,28C72.88,28 74.87,28.1 77.23,28.3C79.49,28.51 81.35,28.61 82.8,28.61C83.84,28.61 85.38,28.52 87.4,28.35C89.96,28.12 92.11,28 93.83,28C94.23,28 94.43,28.4 94.43,29.21C94.43,30.29 94.06,30.83 93.32,30.83C90.69,31.1 88.57,31.83 86.97,33.01C85.37,34.19 83.37,36.87 80.98,41.05L71.26,59.02L84.42,85.83L103.85,40.65C104.52,39 104.86,37.48 104.86,36.1C104.86,32.79 102.6,31.04 98.08,30.83C97.67,30.83 97.47,30.36 97.47,29.42C97.47,28.47 97.77,28 98.38,28C100.03,28 101.99,28.1 104.25,28.3C106.34,28.51 108.1,28.61 109.51,28.61C111,28.61 112.72,28.51 114.67,28.3C116.7,28.1 118.52,28 120.14,28C120.61,28 120.85,28.4 120.85,29.21Z" style="fill:url(#_Linear2);"/>
        </g>
    </g>
    <defs>
        <linearGradient id="_Linear1" x1="0" y1="0" x2="1" y2="0" gradientUnits="userSpaceOnUse" gradientTransform="matrix(8.59984e-15,141.27,-140.446,8.65026e-15,73.7769,2.73045)"><stop offset="0" style="stop-color:rgb(250,252,249);stop-opacity:1"/><stop offset="1" style="stop-color:rgb(219,221,217);stop-opacity:1"/></linearGradient>
        <linearGradient id="_Linear2" x1="0" y1="0" x2="1" y2="0" gradientUnits="userSpaceOnUse" gradientTransform="matrix(4.48634e-15,73.2676,-73.2676,4.48634e-15,66.4617,27.5607)"><stop offset="0" style="stop-color:rgb(18,19,17);stop-opacity:1"/><stop offset="1" style="stop-color:rgb(48,49,47);stop-opacity:1"/></linearGradient>
    </defs>
</svg>
